<svg xmlns="http://www.w3.org/2000/svg" viewBox="0 0 220 72" width="220" height="72"><path d="M110 26Q93.63 10.46 66.77 10.27Q87.47 27.38 110 26z" fill="#3F5F38"/><path d="M110 26Q132.53 27.38 153.23 10.27Q126.37 10.46 110 26z" fill="#3F5F38"/><path d="M80 28Q58.66 27.25 38.65 43.05Q64.13 42.29 80 28z" fill="#5E7F4A"/><path d="M140 28Q155.87 42.29 181.35 43.05Q161.34 27.25 140 28z" fill="#5E7F4A"/><path d="M62 26Q54.96 12.52 37.43 8.79Q46.93 23.99 62 26z" fill="#3F5F38"/><path d="M158 26Q173.07 23.99 182.57 8.79Q165.04 12.52 158 26z" fill="#3F5F38"/><path d="M96 34Q83.87 43.95 85.74 62.19Q98.9 49.42 96 34z" fill="#5E7F4A"/><path d="M124 34Q121.1 49.42 134.26 62.19Q136.13 43.95 124 34z" fill="#5E7F4A"/><path d="M110 36Q102 51.3 110 70Q118 51.3 110 36z" fill="#3F5F38"/><circle cx="30" cy="20" r="2.2" fill="#FFFDF8"/><circle cx="30" cy="20" r="0.8" fill="#F1D9A8"/><circle cx="22" cy="30" r="2.2" fill="#FFFDF8"/><circle cx="22" cy="30" r="0.8" fill="#F1D9A8"/><circle cx="40" cy="34" r="2.2" fill="#FFFDF8"/><circle cx="40" cy="34" r="0.8" fill="#F1D9A8"/><circle cx="190" cy="20" r="2.2" fill="#FFFDF8"/><circle cx="190" cy="20" r="0.8" fill="#F1D9A8"/><circle cx="198" cy="30" r="2.2" fill="#FFFDF8"/><circle cx="198" cy="30" r="0.8" fill="#F1D9A8"/><circle cx="180" cy="34" r="2.2" fill="#FFFDF8"/><circle cx="180" cy="34" r="0.8" fill="#F1D9A8"/><circle cx="70" cy="50" r="2.2" fill="#FFFDF8"/><circle cx="70" cy="50" r="0.8" fill="#F1D9A8"/><circle cx="150" cy="50" r="2.2" fill="#FFFDF8"/><circle cx="150" cy="50" r="0.8" fill="#F1D9A8"/><circle cx="110" cy="64" r="2.2" fill="#FFFDF8"/><circle cx="110" cy="64" r="0.8" fill="#F1D9A8"/><path d="M44 26Q34 24 30 20M44 26Q32 30 22 30M52 30Q46 34 40 34M176 26Q186 24 190 20M176 26Q188 30 198 30M168 30Q174 34 180 34M88 40Q78 46 70 50M132 40Q142 46 150 50M110 48V64" fill="none" stroke="#3F5F38" stroke-width="0.8" stroke-linecap="round"/><ellipse cx="64.73" cy="24.67" rx="7.28" ry="5.2" transform="rotate(5.73 64.73 24.67)" fill="#9A4FB0" stroke="#FFE3A8" stroke-opacity="0.45" stroke-width="0.3"/><ellipse cx="63.49" cy="27.95" rx="7.28" ry="5.2" transform="rotate(35.73 63.49 27.95)" fill="#9A4FB0" stroke="#FFE3A8" stroke-opacity="0.45" stroke-width="0.3"/><ellipse cx="60.78" cy="30.16" rx="7.28" ry="5.2" transform="rotate(65.73 60.78 30.16)" fill="#9A4FB0" stroke="#FFE3A8" stroke-opacity="0.45" stroke-width="0.3"/><ellipse cx="57.33" cy="30.73" rx="7.28" ry="5.2" transform="rotate(95.73 57.33 30.73)" fill="#9A4FB0" stroke="#FFE3A8" stroke-opacity="0.45" stroke-width="0.3"/><ellipse cx="54.05" cy="29.49" rx="7.28" ry="5.2" transform="rotate(125.73 54.05 29.49)" fill="#9A4FB0" stroke="#FFE3A8" stroke-opacity="0.45" stroke-width="0.3"/><ellipse cx="51.84" cy="26.78" rx="7.28" ry="5.2" transform="rotate(155.73 51.84 26.78)" fill="#9A4FB0" stroke="#FFE3A8" stroke-opacity="0.45" stroke-width="0.3"/><ellipse cx="51.27" cy="23.33" rx="7.28" ry="5.2" transform="rotate(185.73 51.27 23.33)" fill="#9A4FB0" stroke="#FFE3A8" stroke-opacity="0.45" stroke-width="0.3"/><ellipse cx="52.51" cy="20.05" rx="7.28" ry="5.2" transform="rotate(215.73 52.51 20.05)" fill="#9A4FB0" stroke="#FFE3A8" stroke-opacity="0.45" stroke-width="0.3"/><ellipse cx="55.22" cy="17.84" rx="7.28" ry="5.2" transform="rotate(245.73 55.22 17.84)" fill="#9A4FB0" stroke="#FFE3A8" stroke-opacity="0.45" stroke-width="0.3"/><ellipse cx="58.67" cy="17.27" rx="7.28" ry="5.2" transform="rotate(275.73 58.67 17.27)" fill="#9A4FB0" stroke="#FFE3A8" stroke-opacity="0.45" stroke-width="0.3"/><ellipse cx="61.95" cy="18.51" rx="7.28" ry="5.2" transform="rotate(305.73 61.95 18.51)" fill="#9A4FB0" stroke="#FFE3A8" stroke-opacity="0.45" stroke-width="0.3"/><ellipse cx="64.16" cy="21.22" rx="7.28" ry="5.2" transform="rotate(335.73 64.16 21.22)" fill="#9A4FB0" stroke="#FFE3A8" stroke-opacity="0.45" stroke-width="0.3"/><ellipse cx="62.86" cy="26.05" rx="5.68" ry="4.06" transform="rotate(22.92 62.86 26.05)" fill="#83399B" stroke="#FFE3A8" stroke-opacity="0.45" stroke-width="0.3"/><ellipse cx="60.72" cy="28.52" rx="5.68" ry="4.06" transform="rotate(58.92 60.72 28.52)" fill="#83399B" stroke="#FFE3A8" stroke-opacity="0.45" stroke-width="0.3"/><ellipse cx="57.55" cy="29.25" rx="5.68" ry="4.06" transform="rotate(94.92 57.55 29.25)" fill="#83399B" stroke="#FFE3A8" stroke-opacity="0.45" stroke-width="0.3"/><ellipse cx="54.55" cy="27.98" rx="5.68" ry="4.06" transform="rotate(130.92 54.55 27.98)" fill="#83399B" stroke="#FFE3A8" stroke-opacity="0.45" stroke-width="0.3"/><ellipse cx="52.86" cy="25.19" rx="5.68" ry="4.06" transform="rotate(166.92 52.86 25.19)" fill="#83399B" stroke="#FFE3A8" stroke-opacity="0.45" stroke-width="0.3"/><ellipse cx="53.14" cy="21.95" rx="5.68" ry="4.06" transform="rotate(202.92 53.14 21.95)" fill="#83399B" stroke="#FFE3A8" stroke-opacity="0.45" stroke-width="0.3"/><ellipse cx="55.28" cy="19.48" rx="5.68" ry="4.06" transform="rotate(238.92 55.28 19.48)" fill="#83399B" stroke="#FFE3A8" stroke-opacity="0.45" stroke-width="0.3"/><ellipse cx="58.45" cy="18.75" rx="5.68" ry="4.06" transform="rotate(274.92 58.45 18.75)" fill="#83399B" stroke="#FFE3A8" stroke-opacity="0.45" stroke-width="0.3"/><ellipse cx="61.45" cy="20.02" rx="5.68" ry="4.06" transform="rotate(310.92 61.45 20.02)" fill="#83399B" stroke="#FFE3A8" stroke-opacity="0.45" stroke-width="0.3"/><ellipse cx="63.14" cy="22.81" rx="5.68" ry="4.06" transform="rotate(346.92 63.14 22.81)" fill="#83399B" stroke="#FFE3A8" stroke-opacity="0.45" stroke-width="0.3"/><ellipse cx="61.71" cy="24.75" rx="4.08" ry="2.91" transform="rotate(11.46 61.71 24.75)" fill="#6C2884" stroke="#FFE3A8" stroke-opacity="0.45" stroke-width="0.3"/><ellipse cx="60.09" cy="27.16" rx="4.08" ry="2.91" transform="rotate(56.46 60.09 27.16)" fill="#6C2884" stroke="#FFE3A8" stroke-opacity="0.45" stroke-width="0.3"/><ellipse cx="57.25" cy="27.71" rx="4.08" ry="2.91" transform="rotate(101.46 57.25 27.71)" fill="#6C2884" stroke="#FFE3A8" stroke-opacity="0.45" stroke-width="0.3"/><ellipse cx="54.84" cy="26.09" rx="4.08" ry="2.91" transform="rotate(146.46 54.84 26.09)" fill="#6C2884" stroke="#FFE3A8" stroke-opacity="0.45" stroke-width="0.3"/><ellipse cx="54.29" cy="23.25" rx="4.08" ry="2.91" transform="rotate(191.46 54.29 23.25)" fill="#6C2884" stroke="#FFE3A8" stroke-opacity="0.45" stroke-width="0.3"/><ellipse cx="55.91" cy="20.84" rx="4.08" ry="2.91" transform="rotate(236.46 55.91 20.84)" fill="#6C2884" stroke="#FFE3A8" stroke-opacity="0.45" stroke-width="0.3"/><ellipse cx="58.75" cy="20.29" rx="4.08" ry="2.91" transform="rotate(281.46 58.75 20.29)" fill="#6C2884" stroke="#FFE3A8" stroke-opacity="0.45" stroke-width="0.3"/><ellipse cx="61.16" cy="21.91" rx="4.08" ry="2.91" transform="rotate(326.46 61.16 21.91)" fill="#6C2884" stroke="#FFE3A8" stroke-opacity="0.45" stroke-width="0.3"/><ellipse cx="60.02" cy="25.1" rx="2.48" ry="1.77" transform="rotate(28.65 60.02 25.1)" fill="#571C6E" stroke="#FFE3A8" stroke-opacity="0.45" stroke-width="0.3"/><ellipse cx="58.05" cy="26.3" rx="2.48" ry="1.77" transform="rotate(88.65 58.05 26.3)" fill="#571C6E" stroke="#FFE3A8" stroke-opacity="0.45" stroke-width="0.3"/><ellipse cx="56.04" cy="25.2" rx="2.48" ry="1.77" transform="rotate(148.65 56.04 25.2)" fill="#571C6E" stroke="#FFE3A8" stroke-opacity="0.45" stroke-width="0.3"/><ellipse cx="55.98" cy="22.9" rx="2.48" ry="1.77" transform="rotate(208.65 55.98 22.9)" fill="#571C6E" stroke="#FFE3A8" stroke-opacity="0.45" stroke-width="0.3"/><ellipse cx="57.95" cy="21.7" rx="2.48" ry="1.77" transform="rotate(268.65 57.95 21.7)" fill="#571C6E" stroke="#FFE3A8" stroke-opacity="0.45" stroke-width="0.3"/><ellipse cx="59.96" cy="22.8" rx="2.48" ry="1.77" transform="rotate(328.65 59.96 22.8)" fill="#571C6E" stroke="#FFE3A8" stroke-opacity="0.45" stroke-width="0.3"/><circle cx="58" cy="24" r="2.08" fill="#8A3D06"/><ellipse cx="168.73" cy="24.67" rx="7.28" ry="5.2" transform="rotate(5.73 168.73 24.67)" fill="#9A4FB0" stroke="#FFE3A8" stroke-opacity="0.45" stroke-width="0.3"/><ellipse cx="167.49" cy="27.95" rx="7.28" ry="5.2" transform="rotate(35.73 167.49 27.95)" fill="#9A4FB0" stroke="#FFE3A8" stroke-opacity="0.45" stroke-width="0.3"/><ellipse cx="164.78" cy="30.16" rx="7.28" ry="5.2" transform="rotate(65.73 164.78 30.16)" fill="#9A4FB0" stroke="#FFE3A8" stroke-opacity="0.45" stroke-width="0.3"/><ellipse cx="161.33" cy="30.73" rx="7.28" ry="5.2" transform="rotate(95.73 161.33 30.73)" fill="#9A4FB0" stroke="#FFE3A8" stroke-opacity="0.45" stroke-width="0.3"/><ellipse cx="158.05" cy="29.49" rx="7.28" ry="5.2" transform="rotate(125.73 158.05 29.49)" fill="#9A4FB0" stroke="#FFE3A8" stroke-opacity="0.45" stroke-width="0.3"/><ellipse cx="155.84" cy="26.78" rx="7.28" ry="5.2" transform="rotate(155.73 155.84 26.78)" fill="#9A4FB0" stroke="#FFE3A8" stroke-opacity="0.45" stroke-width="0.3"/><ellipse cx="155.27" cy="23.33" rx="7.28" ry="5.2" transform="rotate(185.73 155.27 23.33)" fill="#9A4FB0" stroke="#FFE3A8" stroke-opacity="0.45" stroke-width="0.3"/><ellipse cx="156.51" cy="20.05" rx="7.28" ry="5.2" transform="rotate(215.73 156.51 20.05)" fill="#9A4FB0" stroke="#FFE3A8" stroke-opacity="0.45" stroke-width="0.3"/><ellipse cx="159.22" cy="17.84" rx="7.28" ry="5.2" transform="rotate(245.73 159.22 17.84)" fill="#9A4FB0" stroke="#FFE3A8" stroke-opacity="0.45" stroke-width="0.3"/><ellipse cx="162.67" cy="17.27" rx="7.28" ry="5.2" transform="rotate(275.73 162.67 17.27)" fill="#9A4FB0" stroke="#FFE3A8" stroke-opacity="0.45" stroke-width="0.3"/><ellipse cx="165.95" cy="18.51" rx="7.28" ry="5.2" transform="rotate(305.73 165.95 18.51)" fill="#9A4FB0" stroke="#FFE3A8" stroke-opacity="0.45" stroke-width="0.3"/><ellipse cx="168.16" cy="21.22" rx="7.28" ry="5.2" transform="rotate(335.73 168.16 21.22)" fill="#9A4FB0" stroke="#FFE3A8" stroke-opacity="0.45" stroke-width="0.3"/><ellipse cx="166.86" cy="26.05" rx="5.68" ry="4.06" transform="rotate(22.92 166.86 26.05)" fill="#83399B" stroke="#FFE3A8" stroke-opacity="0.45" stroke-width="0.3"/><ellipse cx="164.72" cy="28.52" rx="5.68" ry="4.06" transform="rotate(58.92 164.72 28.52)" fill="#83399B" stroke="#FFE3A8" stroke-opacity="0.45" stroke-width="0.3"/><ellipse cx="161.55" cy="29.25" rx="5.68" ry="4.06" transform="rotate(94.92 161.55 29.25)" fill="#83399B" stroke="#FFE3A8" stroke-opacity="0.45" stroke-width="0.3"/><ellipse cx="158.55" cy="27.98" rx="5.68" ry="4.06" transform="rotate(130.92 158.55 27.98)" fill="#83399B" stroke="#FFE3A8" stroke-opacity="0.45" stroke-width="0.3"/><ellipse cx="156.86" cy="25.19" rx="5.68" ry="4.06" transform="rotate(166.92 156.86 25.19)" fill="#83399B" stroke="#FFE3A8" stroke-opacity="0.45" stroke-width="0.3"/><ellipse cx="157.14" cy="21.95" rx="5.68" ry="4.06" transform="rotate(202.92 157.14 21.95)" fill="#83399B" stroke="#FFE3A8" stroke-opacity="0.45" stroke-width="0.3"/><ellipse cx="159.28" cy="19.48" rx="5.68" ry="4.06" transform="rotate(238.92 159.28 19.48)" fill="#83399B" stroke="#FFE3A8" stroke-opacity="0.45" stroke-width="0.3"/><ellipse cx="162.45" cy="18.75" rx="5.68" ry="4.06" transform="rotate(274.92 162.45 18.75)" fill="#83399B" stroke="#FFE3A8" stroke-opacity="0.45" stroke-width="0.3"/><ellipse cx="165.45" cy="20.02" rx="5.68" ry="4.06" transform="rotate(310.92 165.45 20.02)" fill="#83399B" stroke="#FFE3A8" stroke-opacity="0.45" stroke-width="0.3"/><ellipse cx="167.14" cy="22.81" rx="5.68" ry="4.06" transform="rotate(346.92 167.14 22.81)" fill="#83399B" stroke="#FFE3A8" stroke-opacity="0.45" stroke-width="0.3"/><ellipse cx="165.71" cy="24.75" rx="4.08" ry="2.91" transform="rotate(11.46 165.71 24.75)" fill="#6C2884" stroke="#FFE3A8" stroke-opacity="0.45" stroke-width="0.3"/><ellipse cx="164.09" cy="27.16" rx="4.08" ry="2.91" transform="rotate(56.46 164.09 27.16)" fill="#6C2884" stroke="#FFE3A8" stroke-opacity="0.45" stroke-width="0.3"/><ellipse cx="161.25" cy="27.71" rx="4.08" ry="2.91" transform="rotate(101.46 161.25 27.71)" fill="#6C2884" stroke="#FFE3A8" stroke-opacity="0.45" stroke-width="0.3"/><ellipse cx="158.84" cy="26.09" rx="4.08" ry="2.91" transform="rotate(146.46 158.84 26.09)" fill="#6C2884" stroke="#FFE3A8" stroke-opacity="0.45" stroke-width="0.3"/><ellipse cx="158.29" cy="23.25" rx="4.08" ry="2.91" transform="rotate(191.46 158.29 23.25)" fill="#6C2884" stroke="#FFE3A8" stroke-opacity="0.45" stroke-width="0.3"/><ellipse cx="159.91" cy="20.84" rx="4.08" ry="2.91" transform="rotate(236.46 159.91 20.84)" fill="#6C2884" stroke="#FFE3A8" stroke-opacity="0.45" stroke-width="0.3"/><ellipse cx="162.75" cy="20.29" rx="4.08" ry="2.91" transform="rotate(281.46 162.75 20.29)" fill="#6C2884" stroke="#FFE3A8" stroke-opacity="0.45" stroke-width="0.3"/><ellipse cx="165.16" cy="21.91" rx="4.08" ry="2.91" transform="rotate(326.46 165.16 21.91)" fill="#6C2884" stroke="#FFE3A8" stroke-opacity="0.45" stroke-width="0.3"/><ellipse cx="164.02" cy="25.1" rx="2.48" ry="1.77" transform="rotate(28.65 164.02 25.1)" fill="#571C6E" stroke="#FFE3A8" stroke-opacity="0.45" stroke-width="0.3"/><ellipse cx="162.05" cy="26.3" rx="2.48" ry="1.77" transform="rotate(88.65 162.05 26.3)" fill="#571C6E" stroke="#FFE3A8" stroke-opacity="0.45" stroke-width="0.3"/><ellipse cx="160.04" cy="25.2" rx="2.48" ry="1.77" transform="rotate(148.65 160.04 25.2)" fill="#571C6E" stroke="#FFE3A8" stroke-opacity="0.45" stroke-width="0.3"/><ellipse cx="159.98" cy="22.9" rx="2.48" ry="1.77" transform="rotate(208.65 159.98 22.9)" fill="#571C6E" stroke="#FFE3A8" stroke-opacity="0.45" stroke-width="0.3"/><ellipse cx="161.95" cy="21.7" rx="2.48" ry="1.77" transform="rotate(268.65 161.95 21.7)" fill="#571C6E" stroke="#FFE3A8" stroke-opacity="0.45" stroke-width="0.3"/><ellipse cx="163.96" cy="22.8" rx="2.48" ry="1.77" transform="rotate(328.65 163.96 22.8)" fill="#571C6E" stroke="#FFE3A8" stroke-opacity="0.45" stroke-width="0.3"/><circle cx="162" cy="24" r="2.08" fill="#8A3D06"/><ellipse cx="90.8" cy="28.88" rx="9.52" ry="6.8" transform="rotate(5.73 90.8 28.88)" fill="#FAC83C" stroke="#FFE3A8" stroke-opacity="0.45" stroke-width="0.3"/><ellipse cx="89.18" cy="33.16" rx="9.52" ry="6.8" transform="rotate(35.73 89.18 33.16)" fill="#FAC83C" stroke="#FFE3A8" stroke-opacity="0.45" stroke-width="0.3"/><ellipse cx="85.63" cy="36.06" rx="9.52" ry="6.8" transform="rotate(65.73 85.63 36.06)" fill="#FAC83C" stroke="#FFE3A8" stroke-opacity="0.45" stroke-width="0.3"/><ellipse cx="81.12" cy="36.8" rx="9.52" ry="6.8" transform="rotate(95.73 81.12 36.8)" fill="#FAC83C" stroke="#FFE3A8" stroke-opacity="0.45" stroke-width="0.3"/><ellipse cx="76.84" cy="35.18" rx="9.52" ry="6.8" transform="rotate(125.73 76.84 35.18)" fill="#FAC83C" stroke="#FFE3A8" stroke-opacity="0.45" stroke-width="0.3"/><ellipse cx="73.94" cy="31.63" rx="9.52" ry="6.8" transform="rotate(155.73 73.94 31.63)" fill="#FAC83C" stroke="#FFE3A8" stroke-opacity="0.45" stroke-width="0.3"/><ellipse cx="73.2" cy="27.12" rx="9.52" ry="6.8" transform="rotate(185.73 73.2 27.12)" fill="#FAC83C" stroke="#FFE3A8" stroke-opacity="0.45" stroke-width="0.3"/><ellipse cx="74.82" cy="22.84" rx="9.52" ry="6.8" transform="rotate(215.73 74.82 22.84)" fill="#FAC83C" stroke="#FFE3A8" stroke-opacity="0.45" stroke-width="0.3"/><ellipse cx="78.37" cy="19.94" rx="9.52" ry="6.8" transform="rotate(245.73 78.37 19.94)" fill="#FAC83C" stroke="#FFE3A8" stroke-opacity="0.45" stroke-width="0.3"/><ellipse cx="82.88" cy="19.2" rx="9.52" ry="6.8" transform="rotate(275.73 82.88 19.2)" fill="#FAC83C" stroke="#FFE3A8" stroke-opacity="0.45" stroke-width="0.3"/><ellipse cx="87.16" cy="20.82" rx="9.52" ry="6.8" transform="rotate(305.73 87.16 20.82)" fill="#FAC83C" stroke="#FFE3A8" stroke-opacity="0.45" stroke-width="0.3"/><ellipse cx="90.06" cy="24.37" rx="9.52" ry="6.8" transform="rotate(335.73 90.06 24.37)" fill="#FAC83C" stroke="#FFE3A8" stroke-opacity="0.45" stroke-width="0.3"/><ellipse cx="88.35" cy="30.69" rx="7.43" ry="5.3" transform="rotate(22.92 88.35 30.69)" fill="#F5B321" stroke="#FFE3A8" stroke-opacity="0.45" stroke-width="0.3"/><ellipse cx="85.56" cy="33.91" rx="7.43" ry="5.3" transform="rotate(58.92 85.56 33.91)" fill="#F5B321" stroke="#FFE3A8" stroke-opacity="0.45" stroke-width="0.3"/><ellipse cx="81.41" cy="34.87" rx="7.43" ry="5.3" transform="rotate(94.92 81.41 34.87)" fill="#F5B321" stroke="#FFE3A8" stroke-opacity="0.45" stroke-width="0.3"/><ellipse cx="77.48" cy="33.21" rx="7.43" ry="5.3" transform="rotate(130.92 77.48 33.21)" fill="#F5B321" stroke="#FFE3A8" stroke-opacity="0.45" stroke-width="0.3"/><ellipse cx="75.28" cy="29.56" rx="7.43" ry="5.3" transform="rotate(166.92 75.28 29.56)" fill="#F5B321" stroke="#FFE3A8" stroke-opacity="0.45" stroke-width="0.3"/><ellipse cx="75.65" cy="25.31" rx="7.43" ry="5.3" transform="rotate(202.92 75.65 25.31)" fill="#F5B321" stroke="#FFE3A8" stroke-opacity="0.45" stroke-width="0.3"/><ellipse cx="78.44" cy="22.09" rx="7.43" ry="5.3" transform="rotate(238.92 78.44 22.09)" fill="#F5B321" stroke="#FFE3A8" stroke-opacity="0.45" stroke-width="0.3"/><ellipse cx="82.59" cy="21.13" rx="7.43" ry="5.3" transform="rotate(274.92 82.59 21.13)" fill="#F5B321" stroke="#FFE3A8" stroke-opacity="0.45" stroke-width="0.3"/><ellipse cx="86.52" cy="22.79" rx="7.43" ry="5.3" transform="rotate(310.92 86.52 22.79)" fill="#F5B321" stroke="#FFE3A8" stroke-opacity="0.45" stroke-width="0.3"/><ellipse cx="88.72" cy="26.44" rx="7.43" ry="5.3" transform="rotate(346.92 88.72 26.44)" fill="#F5B321" stroke="#FFE3A8" stroke-opacity="0.45" stroke-width="0.3"/><ellipse cx="86.85" cy="28.98" rx="5.33" ry="3.81" transform="rotate(11.46 86.85 28.98)" fill="#EE9D14" stroke="#FFE3A8" stroke-opacity="0.45" stroke-width="0.3"/><ellipse cx="84.74" cy="32.13" rx="5.33" ry="3.81" transform="rotate(56.46 84.74 32.13)" fill="#EE9D14" stroke="#FFE3A8" stroke-opacity="0.45" stroke-width="0.3"/><ellipse cx="81.02" cy="32.85" rx="5.33" ry="3.81" transform="rotate(101.46 81.02 32.85)" fill="#EE9D14" stroke="#FFE3A8" stroke-opacity="0.45" stroke-width="0.3"/><ellipse cx="77.87" cy="30.74" rx="5.33" ry="3.81" transform="rotate(146.46 77.87 30.74)" fill="#EE9D14" stroke="#FFE3A8" stroke-opacity="0.45" stroke-width="0.3"/><ellipse cx="77.15" cy="27.02" rx="5.33" ry="3.81" transform="rotate(191.46 77.15 27.02)" fill="#EE9D14" stroke="#FFE3A8" stroke-opacity="0.45" stroke-width="0.3"/><ellipse cx="79.26" cy="23.87" rx="5.33" ry="3.81" transform="rotate(236.46 79.26 23.87)" fill="#EE9D14" stroke="#FFE3A8" stroke-opacity="0.45" stroke-width="0.3"/><ellipse cx="82.98" cy="23.15" rx="5.33" ry="3.81" transform="rotate(281.46 82.98 23.15)" fill="#EE9D14" stroke="#FFE3A8" stroke-opacity="0.45" stroke-width="0.3"/><ellipse cx="86.13" cy="25.26" rx="5.33" ry="3.81" transform="rotate(326.46 86.13 25.26)" fill="#EE9D14" stroke="#FFE3A8" stroke-opacity="0.45" stroke-width="0.3"/><ellipse cx="84.64" cy="29.44" rx="3.24" ry="2.31" transform="rotate(28.65 84.64 29.44)" fill="#E0860E" stroke="#FFE3A8" stroke-opacity="0.45" stroke-width="0.3"/><ellipse cx="82.07" cy="31" rx="3.24" ry="2.31" transform="rotate(88.65 82.07 31)" fill="#E0860E" stroke="#FFE3A8" stroke-opacity="0.45" stroke-width="0.3"/><ellipse cx="79.43" cy="29.56" rx="3.24" ry="2.31" transform="rotate(148.65 79.43 29.56)" fill="#E0860E" stroke="#FFE3A8" stroke-opacity="0.45" stroke-width="0.3"/><ellipse cx="79.36" cy="26.56" rx="3.24" ry="2.31" transform="rotate(208.65 79.36 26.56)" fill="#E0860E" stroke="#FFE3A8" stroke-opacity="0.45" stroke-width="0.3"/><ellipse cx="81.93" cy="25" rx="3.24" ry="2.31" transform="rotate(268.65 81.93 25)" fill="#E0860E" stroke="#FFE3A8" stroke-opacity="0.45" stroke-width="0.3"/><ellipse cx="84.57" cy="26.44" rx="3.24" ry="2.31" transform="rotate(328.65 84.57 26.44)" fill="#E0860E" stroke="#FFE3A8" stroke-opacity="0.45" stroke-width="0.3"/><circle cx="82" cy="28" r="2.72" fill="#8A3D06"/><ellipse cx="146.8" cy="28.88" rx="9.52" ry="6.8" transform="rotate(5.73 146.8 28.88)" fill="#FAC83C" stroke="#FFE3A8" stroke-opacity="0.45" stroke-width="0.3"/><ellipse cx="145.18" cy="33.16" rx="9.52" ry="6.8" transform="rotate(35.73 145.18 33.16)" fill="#FAC83C" stroke="#FFE3A8" stroke-opacity="0.45" stroke-width="0.3"/><ellipse cx="141.63" cy="36.06" rx="9.52" ry="6.8" transform="rotate(65.73 141.63 36.06)" fill="#FAC83C" stroke="#FFE3A8" stroke-opacity="0.45" stroke-width="0.3"/><ellipse cx="137.12" cy="36.8" rx="9.52" ry="6.8" transform="rotate(95.73 137.12 36.8)" fill="#FAC83C" stroke="#FFE3A8" stroke-opacity="0.45" stroke-width="0.3"/><ellipse cx="132.84" cy="35.18" rx="9.52" ry="6.8" transform="rotate(125.73 132.84 35.18)" fill="#FAC83C" stroke="#FFE3A8" stroke-opacity="0.45" stroke-width="0.3"/><ellipse cx="129.94" cy="31.63" rx="9.52" ry="6.8" transform="rotate(155.73 129.94 31.63)" fill="#FAC83C" stroke="#FFE3A8" stroke-opacity="0.45" stroke-width="0.3"/><ellipse cx="129.2" cy="27.12" rx="9.52" ry="6.8" transform="rotate(185.73 129.2 27.12)" fill="#FAC83C" stroke="#FFE3A8" stroke-opacity="0.45" stroke-width="0.3"/><ellipse cx="130.82" cy="22.84" rx="9.52" ry="6.8" transform="rotate(215.73 130.82 22.84)" fill="#FAC83C" stroke="#FFE3A8" stroke-opacity="0.45" stroke-width="0.3"/><ellipse cx="134.37" cy="19.94" rx="9.52" ry="6.8" transform="rotate(245.73 134.37 19.94)" fill="#FAC83C" stroke="#FFE3A8" stroke-opacity="0.45" stroke-width="0.3"/><ellipse cx="138.88" cy="19.2" rx="9.52" ry="6.8" transform="rotate(275.73 138.88 19.2)" fill="#FAC83C" stroke="#FFE3A8" stroke-opacity="0.45" stroke-width="0.3"/><ellipse cx="143.16" cy="20.82" rx="9.52" ry="6.8" transform="rotate(305.73 143.16 20.82)" fill="#FAC83C" stroke="#FFE3A8" stroke-opacity="0.45" stroke-width="0.3"/><ellipse cx="146.06" cy="24.37" rx="9.52" ry="6.8" transform="rotate(335.73 146.06 24.37)" fill="#FAC83C" stroke="#FFE3A8" stroke-opacity="0.45" stroke-width="0.3"/><ellipse cx="144.35" cy="30.69" rx="7.43" ry="5.3" transform="rotate(22.92 144.35 30.69)" fill="#F5B321" stroke="#FFE3A8" stroke-opacity="0.45" stroke-width="0.3"/><ellipse cx="141.56" cy="33.91" rx="7.43" ry="5.3" transform="rotate(58.92 141.56 33.91)" fill="#F5B321" stroke="#FFE3A8" stroke-opacity="0.45" stroke-width="0.3"/><ellipse cx="137.41" cy="34.87" rx="7.43" ry="5.3" transform="rotate(94.92 137.41 34.87)" fill="#F5B321" stroke="#FFE3A8" stroke-opacity="0.45" stroke-width="0.3"/><ellipse cx="133.48" cy="33.21" rx="7.43" ry="5.3" transform="rotate(130.92 133.48 33.21)" fill="#F5B321" stroke="#FFE3A8" stroke-opacity="0.45" stroke-width="0.3"/><ellipse cx="131.28" cy="29.56" rx="7.43" ry="5.3" transform="rotate(166.92 131.28 29.56)" fill="#F5B321" stroke="#FFE3A8" stroke-opacity="0.45" stroke-width="0.3"/><ellipse cx="131.65" cy="25.31" rx="7.43" ry="5.3" transform="rotate(202.92 131.65 25.31)" fill="#F5B321" stroke="#FFE3A8" stroke-opacity="0.45" stroke-width="0.3"/><ellipse cx="134.44" cy="22.09" rx="7.43" ry="5.3" transform="rotate(238.92 134.44 22.09)" fill="#F5B321" stroke="#FFE3A8" stroke-opacity="0.45" stroke-width="0.3"/><ellipse cx="138.59" cy="21.13" rx="7.43" ry="5.3" transform="rotate(274.92 138.59 21.13)" fill="#F5B321" stroke="#FFE3A8" stroke-opacity="0.45" stroke-width="0.3"/><ellipse cx="142.52" cy="22.79" rx="7.43" ry="5.3" transform="rotate(310.92 142.52 22.79)" fill="#F5B321" stroke="#FFE3A8" stroke-opacity="0.45" stroke-width="0.3"/><ellipse cx="144.72" cy="26.44" rx="7.43" ry="5.3" transform="rotate(346.92 144.72 26.44)" fill="#F5B321" stroke="#FFE3A8" stroke-opacity="0.45" stroke-width="0.3"/><ellipse cx="142.85" cy="28.98" rx="5.33" ry="3.81" transform="rotate(11.46 142.85 28.98)" fill="#EE9D14" stroke="#FFE3A8" stroke-opacity="0.45" stroke-width="0.3"/><ellipse cx="140.74" cy="32.13" rx="5.33" ry="3.81" transform="rotate(56.46 140.74 32.13)" fill="#EE9D14" stroke="#FFE3A8" stroke-opacity="0.45" stroke-width="0.3"/><ellipse cx="137.02" cy="32.85" rx="5.33" ry="3.81" transform="rotate(101.46 137.02 32.85)" fill="#EE9D14" stroke="#FFE3A8" stroke-opacity="0.45" stroke-width="0.3"/><ellipse cx="133.87" cy="30.74" rx="5.33" ry="3.81" transform="rotate(146.46 133.87 30.74)" fill="#EE9D14" stroke="#FFE3A8" stroke-opacity="0.45" stroke-width="0.3"/><ellipse cx="133.15" cy="27.02" rx="5.33" ry="3.81" transform="rotate(191.46 133.15 27.02)" fill="#EE9D14" stroke="#FFE3A8" stroke-opacity="0.45" stroke-width="0.3"/><ellipse cx="135.26" cy="23.87" rx="5.33" ry="3.81" transform="rotate(236.46 135.26 23.87)" fill="#EE9D14" stroke="#FFE3A8" stroke-opacity="0.45" stroke-width="0.3"/><ellipse cx="138.98" cy="23.15" rx="5.33" ry="3.81" transform="rotate(281.46 138.98 23.15)" fill="#EE9D14" stroke="#FFE3A8" stroke-opacity="0.45" stroke-width="0.3"/><ellipse cx="142.13" cy="25.26" rx="5.33" ry="3.81" transform="rotate(326.46 142.13 25.26)" fill="#EE9D14" stroke="#FFE3A8" stroke-opacity="0.45" stroke-width="0.3"/><ellipse cx="140.64" cy="29.44" rx="3.24" ry="2.31" transform="rotate(28.65 140.64 29.44)" fill="#E0860E" stroke="#FFE3A8" stroke-opacity="0.45" stroke-width="0.3"/><ellipse cx="138.07" cy="31" rx="3.24" ry="2.31" transform="rotate(88.65 138.07 31)" fill="#E0860E" stroke="#FFE3A8" stroke-opacity="0.45" stroke-width="0.3"/><ellipse cx="135.43" cy="29.56" rx="3.24" ry="2.31" transform="rotate(148.65 135.43 29.56)" fill="#E0860E" stroke="#FFE3A8" stroke-opacity="0.45" stroke-width="0.3"/><ellipse cx="135.36" cy="26.56" rx="3.24" ry="2.31" transform="rotate(208.65 135.36 26.56)" fill="#E0860E" stroke="#FFE3A8" stroke-opacity="0.45" stroke-width="0.3"/><ellipse cx="137.93" cy="25" rx="3.24" ry="2.31" transform="rotate(268.65 137.93 25)" fill="#E0860E" stroke="#FFE3A8" stroke-opacity="0.45" stroke-width="0.3"/><ellipse cx="140.57" cy="26.44" rx="3.24" ry="2.31" transform="rotate(328.65 140.57 26.44)" fill="#E0860E" stroke="#FFE3A8" stroke-opacity="0.45" stroke-width="0.3"/><circle cx="138" cy="28" r="2.72" fill="#8A3D06"/><ellipse cx="121.38" cy="29.14" rx="12.32" ry="8.8" transform="rotate(5.73 121.38 29.14)" fill="#F5A21B" stroke="#FFE3A8" stroke-opacity="0.45" stroke-width="0.3"/><ellipse cx="119.29" cy="34.68" rx="12.32" ry="8.8" transform="rotate(35.73 119.29 34.68)" fill="#F5A21B" stroke="#FFE3A8" stroke-opacity="0.45" stroke-width="0.3"/><ellipse cx="114.7" cy="38.43" rx="12.32" ry="8.8" transform="rotate(65.73 114.7 38.43)" fill="#F5A21B" stroke="#FFE3A8" stroke-opacity="0.45" stroke-width="0.3"/><ellipse cx="108.86" cy="39.38" rx="12.32" ry="8.8" transform="rotate(95.73 108.86 39.38)" fill="#F5A21B" stroke="#FFE3A8" stroke-opacity="0.45" stroke-width="0.3"/><ellipse cx="103.32" cy="37.29" rx="12.32" ry="8.8" transform="rotate(125.73 103.32 37.29)" fill="#F5A21B" stroke="#FFE3A8" stroke-opacity="0.45" stroke-width="0.3"/><ellipse cx="99.57" cy="32.7" rx="12.32" ry="8.8" transform="rotate(155.73 99.57 32.7)" fill="#F5A21B" stroke="#FFE3A8" stroke-opacity="0.45" stroke-width="0.3"/><ellipse cx="98.62" cy="26.86" rx="12.32" ry="8.8" transform="rotate(185.73 98.62 26.86)" fill="#F5A21B" stroke="#FFE3A8" stroke-opacity="0.45" stroke-width="0.3"/><ellipse cx="100.71" cy="21.32" rx="12.32" ry="8.8" transform="rotate(215.73 100.71 21.32)" fill="#F5A21B" stroke="#FFE3A8" stroke-opacity="0.45" stroke-width="0.3"/><ellipse cx="105.3" cy="17.57" rx="12.32" ry="8.8" transform="rotate(245.73 105.3 17.57)" fill="#F5A21B" stroke="#FFE3A8" stroke-opacity="0.45" stroke-width="0.3"/><ellipse cx="111.14" cy="16.62" rx="12.32" ry="8.8" transform="rotate(275.73 111.14 16.62)" fill="#F5A21B" stroke="#FFE3A8" stroke-opacity="0.45" stroke-width="0.3"/><ellipse cx="116.68" cy="18.71" rx="12.32" ry="8.8" transform="rotate(305.73 116.68 18.71)" fill="#F5A21B" stroke="#FFE3A8" stroke-opacity="0.45" stroke-width="0.3"/><ellipse cx="120.43" cy="23.3" rx="12.32" ry="8.8" transform="rotate(335.73 120.43 23.3)" fill="#F5A21B" stroke="#FFE3A8" stroke-opacity="0.45" stroke-width="0.3"/><ellipse cx="118.22" cy="31.47" rx="9.61" ry="6.86" transform="rotate(22.92 118.22 31.47)" fill="#EE8A12" stroke="#FFE3A8" stroke-opacity="0.45" stroke-width="0.3"/><ellipse cx="114.61" cy="35.64" rx="9.61" ry="6.86" transform="rotate(58.92 114.61 35.64)" fill="#EE8A12" stroke="#FFE3A8" stroke-opacity="0.45" stroke-width="0.3"/><ellipse cx="109.23" cy="36.89" rx="9.61" ry="6.86" transform="rotate(94.92 109.23 36.89)" fill="#EE8A12" stroke="#FFE3A8" stroke-opacity="0.45" stroke-width="0.3"/><ellipse cx="104.16" cy="34.74" rx="9.61" ry="6.86" transform="rotate(130.92 104.16 34.74)" fill="#EE8A12" stroke="#FFE3A8" stroke-opacity="0.45" stroke-width="0.3"/><ellipse cx="101.31" cy="30.02" rx="9.61" ry="6.86" transform="rotate(166.92 101.31 30.02)" fill="#EE8A12" stroke="#FFE3A8" stroke-opacity="0.45" stroke-width="0.3"/><ellipse cx="101.78" cy="24.53" rx="9.61" ry="6.86" transform="rotate(202.92 101.78 24.53)" fill="#EE8A12" stroke="#FFE3A8" stroke-opacity="0.45" stroke-width="0.3"/><ellipse cx="105.39" cy="20.36" rx="9.61" ry="6.86" transform="rotate(238.92 105.39 20.36)" fill="#EE8A12" stroke="#FFE3A8" stroke-opacity="0.45" stroke-width="0.3"/><ellipse cx="110.77" cy="19.11" rx="9.61" ry="6.86" transform="rotate(274.92 110.77 19.11)" fill="#EE8A12" stroke="#FFE3A8" stroke-opacity="0.45" stroke-width="0.3"/><ellipse cx="115.84" cy="21.26" rx="9.61" ry="6.86" transform="rotate(310.92 115.84 21.26)" fill="#EE8A12" stroke="#FFE3A8" stroke-opacity="0.45" stroke-width="0.3"/><ellipse cx="118.69" cy="25.98" rx="9.61" ry="6.86" transform="rotate(346.92 118.69 25.98)" fill="#EE8A12" stroke="#FFE3A8" stroke-opacity="0.45" stroke-width="0.3"/><ellipse cx="116.28" cy="29.27" rx="6.9" ry="4.93" transform="rotate(11.46 116.28 29.27)" fill="#E0730C" stroke="#FFE3A8" stroke-opacity="0.45" stroke-width="0.3"/><ellipse cx="113.54" cy="33.34" rx="6.9" ry="4.93" transform="rotate(56.46 113.54 33.34)" fill="#E0730C" stroke="#FFE3A8" stroke-opacity="0.45" stroke-width="0.3"/><ellipse cx="108.73" cy="34.28" rx="6.9" ry="4.93" transform="rotate(101.46 108.73 34.28)" fill="#E0730C" stroke="#FFE3A8" stroke-opacity="0.45" stroke-width="0.3"/><ellipse cx="104.66" cy="31.54" rx="6.9" ry="4.93" transform="rotate(146.46 104.66 31.54)" fill="#E0730C" stroke="#FFE3A8" stroke-opacity="0.45" stroke-width="0.3"/><ellipse cx="103.72" cy="26.73" rx="6.9" ry="4.93" transform="rotate(191.46 103.72 26.73)" fill="#E0730C" stroke="#FFE3A8" stroke-opacity="0.45" stroke-width="0.3"/><ellipse cx="106.46" cy="22.66" rx="6.9" ry="4.93" transform="rotate(236.46 106.46 22.66)" fill="#E0730C" stroke="#FFE3A8" stroke-opacity="0.45" stroke-width="0.3"/><ellipse cx="111.27" cy="21.72" rx="6.9" ry="4.93" transform="rotate(281.46 111.27 21.72)" fill="#E0730C" stroke="#FFE3A8" stroke-opacity="0.45" stroke-width="0.3"/><ellipse cx="115.34" cy="24.46" rx="6.9" ry="4.93" transform="rotate(326.46 115.34 24.46)" fill="#E0730C" stroke="#FFE3A8" stroke-opacity="0.45" stroke-width="0.3"/><ellipse cx="113.41" cy="29.86" rx="4.19" ry="2.99" transform="rotate(28.65 113.41 29.86)" fill="#C95F08" stroke="#FFE3A8" stroke-opacity="0.45" stroke-width="0.3"/><ellipse cx="110.09" cy="31.89" rx="4.19" ry="2.99" transform="rotate(88.65 110.09 31.89)" fill="#C95F08" stroke="#FFE3A8" stroke-opacity="0.45" stroke-width="0.3"/><ellipse cx="106.68" cy="30.02" rx="4.19" ry="2.99" transform="rotate(148.65 106.68 30.02)" fill="#C95F08" stroke="#FFE3A8" stroke-opacity="0.45" stroke-width="0.3"/><ellipse cx="106.59" cy="26.14" rx="4.19" ry="2.99" transform="rotate(208.65 106.59 26.14)" fill="#C95F08" stroke="#FFE3A8" stroke-opacity="0.45" stroke-width="0.3"/><ellipse cx="109.91" cy="24.11" rx="4.19" ry="2.99" transform="rotate(268.65 109.91 24.11)" fill="#C95F08" stroke="#FFE3A8" stroke-opacity="0.45" stroke-width="0.3"/><ellipse cx="113.32" cy="25.98" rx="4.19" ry="2.99" transform="rotate(328.65 113.32 25.98)" fill="#C95F08" stroke="#FFE3A8" stroke-opacity="0.45" stroke-width="0.3"/><circle cx="110" cy="28" r="3.52" fill="#8A3D06"/><ellipse cx="100.66" cy="46.47" rx="5.04" ry="3.6" transform="rotate(5.73 100.66 46.47)" fill="#FAC83C" stroke="#FFE3A8" stroke-opacity="0.45" stroke-width="0.3"/><ellipse cx="99.8" cy="48.73" rx="5.04" ry="3.6" transform="rotate(35.73 99.8 48.73)" fill="#FAC83C" stroke="#FFE3A8" stroke-opacity="0.45" stroke-width="0.3"/><ellipse cx="97.92" cy="50.27" rx="5.04" ry="3.6" transform="rotate(65.73 97.92 50.27)" fill="#FAC83C" stroke="#FFE3A8" stroke-opacity="0.45" stroke-width="0.3"/><ellipse cx="95.53" cy="50.66" rx="5.04" ry="3.6" transform="rotate(95.73 95.53 50.66)" fill="#FAC83C" stroke="#FFE3A8" stroke-opacity="0.45" stroke-width="0.3"/><ellipse cx="93.27" cy="49.8" rx="5.04" ry="3.6" transform="rotate(125.73 93.27 49.8)" fill="#FAC83C" stroke="#FFE3A8" stroke-opacity="0.45" stroke-width="0.3"/><ellipse cx="91.73" cy="47.92" rx="5.04" ry="3.6" transform="rotate(155.73 91.73 47.92)" fill="#FAC83C" stroke="#FFE3A8" stroke-opacity="0.45" stroke-width="0.3"/><ellipse cx="91.34" cy="45.53" rx="5.04" ry="3.6" transform="rotate(185.73 91.34 45.53)" fill="#FAC83C" stroke="#FFE3A8" stroke-opacity="0.45" stroke-width="0.3"/><ellipse cx="92.2" cy="43.27" rx="5.04" ry="3.6" transform="rotate(215.73 92.2 43.27)" fill="#FAC83C" stroke="#FFE3A8" stroke-opacity="0.45" stroke-width="0.3"/><ellipse cx="94.08" cy="41.73" rx="5.04" ry="3.6" transform="rotate(245.73 94.08 41.73)" fill="#FAC83C" stroke="#FFE3A8" stroke-opacity="0.45" stroke-width="0.3"/><ellipse cx="96.47" cy="41.34" rx="5.04" ry="3.6" transform="rotate(275.73 96.47 41.34)" fill="#FAC83C" stroke="#FFE3A8" stroke-opacity="0.45" stroke-width="0.3"/><ellipse cx="98.73" cy="42.2" rx="5.04" ry="3.6" transform="rotate(305.73 98.73 42.2)" fill="#FAC83C" stroke="#FFE3A8" stroke-opacity="0.45" stroke-width="0.3"/><ellipse cx="100.27" cy="44.08" rx="5.04" ry="3.6" transform="rotate(335.73 100.27 44.08)" fill="#FAC83C" stroke="#FFE3A8" stroke-opacity="0.45" stroke-width="0.3"/><ellipse cx="99.36" cy="47.42" rx="3.93" ry="2.81" transform="rotate(22.92 99.36 47.42)" fill="#F5B321" stroke="#FFE3A8" stroke-opacity="0.45" stroke-width="0.3"/><ellipse cx="97.88" cy="49.13" rx="3.93" ry="2.81" transform="rotate(58.92 97.88 49.13)" fill="#F5B321" stroke="#FFE3A8" stroke-opacity="0.45" stroke-width="0.3"/><ellipse cx="95.69" cy="49.64" rx="3.93" ry="2.81" transform="rotate(94.92 95.69 49.64)" fill="#F5B321" stroke="#FFE3A8" stroke-opacity="0.45" stroke-width="0.3"/><ellipse cx="93.61" cy="48.76" rx="3.93" ry="2.81" transform="rotate(130.92 93.61 48.76)" fill="#F5B321" stroke="#FFE3A8" stroke-opacity="0.45" stroke-width="0.3"/><ellipse cx="92.44" cy="46.83" rx="3.93" ry="2.81" transform="rotate(166.92 92.44 46.83)" fill="#F5B321" stroke="#FFE3A8" stroke-opacity="0.45" stroke-width="0.3"/><ellipse cx="92.64" cy="44.58" rx="3.93" ry="2.81" transform="rotate(202.92 92.64 44.58)" fill="#F5B321" stroke="#FFE3A8" stroke-opacity="0.45" stroke-width="0.3"/><ellipse cx="94.12" cy="42.87" rx="3.93" ry="2.81" transform="rotate(238.92 94.12 42.87)" fill="#F5B321" stroke="#FFE3A8" stroke-opacity="0.45" stroke-width="0.3"/><ellipse cx="96.31" cy="42.36" rx="3.93" ry="2.81" transform="rotate(274.92 96.31 42.36)" fill="#F5B321" stroke="#FFE3A8" stroke-opacity="0.45" stroke-width="0.3"/><ellipse cx="98.39" cy="43.24" rx="3.93" ry="2.81" transform="rotate(310.92 98.39 43.24)" fill="#F5B321" stroke="#FFE3A8" stroke-opacity="0.45" stroke-width="0.3"/><ellipse cx="99.56" cy="45.17" rx="3.93" ry="2.81" transform="rotate(346.92 99.56 45.17)" fill="#F5B321" stroke="#FFE3A8" stroke-opacity="0.45" stroke-width="0.3"/><ellipse cx="98.57" cy="46.52" rx="2.82" ry="2.02" transform="rotate(11.46 98.57 46.52)" fill="#EE9D14" stroke="#FFE3A8" stroke-opacity="0.45" stroke-width="0.3"/><ellipse cx="97.45" cy="48.18" rx="2.82" ry="2.02" transform="rotate(56.46 97.45 48.18)" fill="#EE9D14" stroke="#FFE3A8" stroke-opacity="0.45" stroke-width="0.3"/><ellipse cx="95.48" cy="48.57" rx="2.82" ry="2.02" transform="rotate(101.46 95.48 48.57)" fill="#EE9D14" stroke="#FFE3A8" stroke-opacity="0.45" stroke-width="0.3"/><ellipse cx="93.82" cy="47.45" rx="2.82" ry="2.02" transform="rotate(146.46 93.82 47.45)" fill="#EE9D14" stroke="#FFE3A8" stroke-opacity="0.45" stroke-width="0.3"/><ellipse cx="93.43" cy="45.48" rx="2.82" ry="2.02" transform="rotate(191.46 93.43 45.48)" fill="#EE9D14" stroke="#FFE3A8" stroke-opacity="0.45" stroke-width="0.3"/><ellipse cx="94.55" cy="43.82" rx="2.82" ry="2.02" transform="rotate(236.46 94.55 43.82)" fill="#EE9D14" stroke="#FFE3A8" stroke-opacity="0.45" stroke-width="0.3"/><ellipse cx="96.52" cy="43.43" rx="2.82" ry="2.02" transform="rotate(281.46 96.52 43.43)" fill="#EE9D14" stroke="#FFE3A8" stroke-opacity="0.45" stroke-width="0.3"/><ellipse cx="98.18" cy="44.55" rx="2.82" ry="2.02" transform="rotate(326.46 98.18 44.55)" fill="#EE9D14" stroke="#FFE3A8" stroke-opacity="0.45" stroke-width="0.3"/><ellipse cx="97.4" cy="46.76" rx="1.71" ry="1.22" transform="rotate(28.65 97.4 46.76)" fill="#E0860E" stroke="#FFE3A8" stroke-opacity="0.45" stroke-width="0.3"/><ellipse cx="96.04" cy="47.59" rx="1.71" ry="1.22" transform="rotate(88.65 96.04 47.59)" fill="#E0860E" stroke="#FFE3A8" stroke-opacity="0.45" stroke-width="0.3"/><ellipse cx="94.64" cy="46.83" rx="1.71" ry="1.22" transform="rotate(148.65 94.64 46.83)" fill="#E0860E" stroke="#FFE3A8" stroke-opacity="0.45" stroke-width="0.3"/><ellipse cx="94.6" cy="45.24" rx="1.71" ry="1.22" transform="rotate(208.65 94.6 45.24)" fill="#E0860E" stroke="#FFE3A8" stroke-opacity="0.45" stroke-width="0.3"/><ellipse cx="95.96" cy="44.41" rx="1.71" ry="1.22" transform="rotate(268.65 95.96 44.41)" fill="#E0860E" stroke="#FFE3A8" stroke-opacity="0.45" stroke-width="0.3"/><ellipse cx="97.36" cy="45.17" rx="1.71" ry="1.22" transform="rotate(328.65 97.36 45.17)" fill="#E0860E" stroke="#FFE3A8" stroke-opacity="0.45" stroke-width="0.3"/><circle cx="96" cy="46" r="1.44" fill="#8A3D06"/><ellipse cx="128.66" cy="46.47" rx="5.04" ry="3.6" transform="rotate(5.73 128.66 46.47)" fill="#9A4FB0" stroke="#FFE3A8" stroke-opacity="0.45" stroke-width="0.3"/><ellipse cx="127.8" cy="48.73" rx="5.04" ry="3.6" transform="rotate(35.73 127.8 48.73)" fill="#9A4FB0" stroke="#FFE3A8" stroke-opacity="0.45" stroke-width="0.3"/><ellipse cx="125.92" cy="50.27" rx="5.04" ry="3.6" transform="rotate(65.73 125.92 50.27)" fill="#9A4FB0" stroke="#FFE3A8" stroke-opacity="0.45" stroke-width="0.3"/><ellipse cx="123.53" cy="50.66" rx="5.04" ry="3.6" transform="rotate(95.73 123.53 50.66)" fill="#9A4FB0" stroke="#FFE3A8" stroke-opacity="0.45" stroke-width="0.3"/><ellipse cx="121.27" cy="49.8" rx="5.04" ry="3.6" transform="rotate(125.73 121.27 49.8)" fill="#9A4FB0" stroke="#FFE3A8" stroke-opacity="0.45" stroke-width="0.3"/><ellipse cx="119.73" cy="47.92" rx="5.04" ry="3.6" transform="rotate(155.73 119.73 47.92)" fill="#9A4FB0" stroke="#FFE3A8" stroke-opacity="0.45" stroke-width="0.3"/><ellipse cx="119.34" cy="45.53" rx="5.04" ry="3.6" transform="rotate(185.73 119.34 45.53)" fill="#9A4FB0" stroke="#FFE3A8" stroke-opacity="0.45" stroke-width="0.3"/><ellipse cx="120.2" cy="43.27" rx="5.04" ry="3.6" transform="rotate(215.73 120.2 43.27)" fill="#9A4FB0" stroke="#FFE3A8" stroke-opacity="0.45" stroke-width="0.3"/><ellipse cx="122.08" cy="41.73" rx="5.04" ry="3.6" transform="rotate(245.73 122.08 41.73)" fill="#9A4FB0" stroke="#FFE3A8" stroke-opacity="0.45" stroke-width="0.3"/><ellipse cx="124.47" cy="41.34" rx="5.04" ry="3.6" transform="rotate(275.73 124.47 41.34)" fill="#9A4FB0" stroke="#FFE3A8" stroke-opacity="0.45" stroke-width="0.3"/><ellipse cx="126.73" cy="42.2" rx="5.04" ry="3.6" transform="rotate(305.73 126.73 42.2)" fill="#9A4FB0" stroke="#FFE3A8" stroke-opacity="0.45" stroke-width="0.3"/><ellipse cx="128.27" cy="44.08" rx="5.04" ry="3.6" transform="rotate(335.73 128.27 44.08)" fill="#9A4FB0" stroke="#FFE3A8" stroke-opacity="0.45" stroke-width="0.3"/><ellipse cx="127.36" cy="47.42" rx="3.93" ry="2.81" transform="rotate(22.92 127.36 47.42)" fill="#83399B" stroke="#FFE3A8" stroke-opacity="0.45" stroke-width="0.3"/><ellipse cx="125.88" cy="49.13" rx="3.93" ry="2.81" transform="rotate(58.92 125.88 49.13)" fill="#83399B" stroke="#FFE3A8" stroke-opacity="0.45" stroke-width="0.3"/><ellipse cx="123.69" cy="49.64" rx="3.93" ry="2.81" transform="rotate(94.92 123.69 49.64)" fill="#83399B" stroke="#FFE3A8" stroke-opacity="0.45" stroke-width="0.3"/><ellipse cx="121.61" cy="48.76" rx="3.93" ry="2.81" transform="rotate(130.92 121.61 48.76)" fill="#83399B" stroke="#FFE3A8" stroke-opacity="0.45" stroke-width="0.3"/><ellipse cx="120.44" cy="46.83" rx="3.93" ry="2.81" transform="rotate(166.92 120.44 46.83)" fill="#83399B" stroke="#FFE3A8" stroke-opacity="0.45" stroke-width="0.3"/><ellipse cx="120.64" cy="44.58" rx="3.93" ry="2.81" transform="rotate(202.92 120.64 44.58)" fill="#83399B" stroke="#FFE3A8" stroke-opacity="0.45" stroke-width="0.3"/><ellipse cx="122.12" cy="42.87" rx="3.93" ry="2.81" transform="rotate(238.92 122.12 42.87)" fill="#83399B" stroke="#FFE3A8" stroke-opacity="0.45" stroke-width="0.3"/><ellipse cx="124.31" cy="42.36" rx="3.93" ry="2.81" transform="rotate(274.92 124.31 42.36)" fill="#83399B" stroke="#FFE3A8" stroke-opacity="0.45" stroke-width="0.3"/><ellipse cx="126.39" cy="43.24" rx="3.93" ry="2.81" transform="rotate(310.92 126.39 43.24)" fill="#83399B" stroke="#FFE3A8" stroke-opacity="0.45" stroke-width="0.3"/><ellipse cx="127.56" cy="45.17" rx="3.93" ry="2.81" transform="rotate(346.92 127.56 45.17)" fill="#83399B" stroke="#FFE3A8" stroke-opacity="0.45" stroke-width="0.3"/><ellipse cx="126.57" cy="46.52" rx="2.82" ry="2.02" transform="rotate(11.46 126.57 46.52)" fill="#6C2884" stroke="#FFE3A8" stroke-opacity="0.45" stroke-width="0.3"/><ellipse cx="125.45" cy="48.18" rx="2.82" ry="2.02" transform="rotate(56.46 125.45 48.18)" fill="#6C2884" stroke="#FFE3A8" stroke-opacity="0.45" stroke-width="0.3"/><ellipse cx="123.48" cy="48.57" rx="2.82" ry="2.02" transform="rotate(101.46 123.48 48.57)" fill="#6C2884" stroke="#FFE3A8" stroke-opacity="0.45" stroke-width="0.3"/><ellipse cx="121.82" cy="47.45" rx="2.82" ry="2.02" transform="rotate(146.46 121.82 47.45)" fill="#6C2884" stroke="#FFE3A8" stroke-opacity="0.45" stroke-width="0.3"/><ellipse cx="121.43" cy="45.48" rx="2.82" ry="2.02" transform="rotate(191.46 121.43 45.48)" fill="#6C2884" stroke="#FFE3A8" stroke-opacity="0.45" stroke-width="0.3"/><ellipse cx="122.55" cy="43.82" rx="2.82" ry="2.02" transform="rotate(236.46 122.55 43.82)" fill="#6C2884" stroke="#FFE3A8" stroke-opacity="0.45" stroke-width="0.3"/><ellipse cx="124.52" cy="43.43" rx="2.82" ry="2.02" transform="rotate(281.46 124.52 43.43)" fill="#6C2884" stroke="#FFE3A8" stroke-opacity="0.45" stroke-width="0.3"/><ellipse cx="126.18" cy="44.55" rx="2.82" ry="2.02" transform="rotate(326.46 126.18 44.55)" fill="#6C2884" stroke="#FFE3A8" stroke-opacity="0.45" stroke-width="0.3"/><ellipse cx="125.4" cy="46.76" rx="1.71" ry="1.22" transform="rotate(28.65 125.4 46.76)" fill="#571C6E" stroke="#FFE3A8" stroke-opacity="0.45" stroke-width="0.3"/><ellipse cx="124.04" cy="47.59" rx="1.71" ry="1.22" transform="rotate(88.65 124.04 47.59)" fill="#571C6E" stroke="#FFE3A8" stroke-opacity="0.45" stroke-width="0.3"/><ellipse cx="122.64" cy="46.83" rx="1.71" ry="1.22" transform="rotate(148.65 122.64 46.83)" fill="#571C6E" stroke="#FFE3A8" stroke-opacity="0.45" stroke-width="0.3"/><ellipse cx="122.6" cy="45.24" rx="1.71" ry="1.22" transform="rotate(208.65 122.6 45.24)" fill="#571C6E" stroke="#FFE3A8" stroke-opacity="0.45" stroke-width="0.3"/><ellipse cx="123.96" cy="44.41" rx="1.71" ry="1.22" transform="rotate(268.65 123.96 44.41)" fill="#571C6E" stroke="#FFE3A8" stroke-opacity="0.45" stroke-width="0.3"/><ellipse cx="125.36" cy="45.17" rx="1.71" ry="1.22" transform="rotate(328.65 125.36 45.17)" fill="#571C6E" stroke="#FFE3A8" stroke-opacity="0.45" stroke-width="0.3"/><circle cx="124" cy="46" r="1.44" fill="#8A3D06"/></svg>
